<svg xmlns="http://www.w3.org/2000/svg" xmlns:xlink="http://www.w3.org/1999/xlink" version="1.1" width="" height="46" viewBox="4.57 4.55 37.85 36.89">
<g id="surface1">
<path style=" stroke:none;fill-rule:nonzero;fill:rgb(0%,0%,0%);fill-opacity:1;" d="M 6.125 35.683594 L 5.8125 36.472656 L 4.574219 36.472656 L 6.300781 31.9375 L 7.578125 31.9375 L 9.265625 36.472656 L 8.023438 36.472656 L 7.730469 35.683594 Z M 6.9375 33.335938 L 6.925781 33.335938 L 6.445312 34.78125 L 7.414062 34.78125 Z M 6.9375 33.335938 "/>
<path style=" stroke:none;fill-rule:nonzero;fill:rgb(0%,0%,0%);fill-opacity:1;" d="M 13.105469 31.9375 L 13.105469 34.417969 C 13.105469 34.984375 13.082031 35.546875 12.648438 35.976562 C 12.285156 36.335938 11.710938 36.464844 11.199219 36.464844 C 10.691406 36.464844 10.117188 36.335938 9.753906 35.976562 C 9.320312 35.546875 9.296875 34.984375 9.296875 34.417969 L 9.296875 31.9375 L 10.429688 31.9375 L 10.429688 34.257812 C 10.429688 34.832031 10.472656 35.460938 11.199219 35.460938 C 11.929688 35.460938 11.972656 34.832031 11.972656 34.257812 L 11.972656 31.9375 Z M 13.105469 31.9375 "/>
<path style=" stroke:none;fill-rule:nonzero;fill:rgb(0%,0%,0%);fill-opacity:1;" d="M 15.585938 36.472656 L 14.417969 36.472656 L 14.417969 32.933594 L 13.453125 32.933594 L 13.453125 31.9375 L 16.550781 31.9375 L 16.550781 32.933594 L 15.585938 32.933594 Z M 15.585938 36.472656 "/>
<path style=" stroke:none;fill-rule:nonzero;fill:rgb(0%,0%,0%);fill-opacity:1;" d="M 21.574219 34.113281 C 21.574219 35.496094 20.59375 36.46875 19.234375 36.46875 C 17.878906 36.46875 16.894531 35.496094 16.894531 34.113281 C 16.894531 32.820312 18.019531 31.914062 19.234375 31.914062 C 20.453125 31.914062 21.574219 32.820312 21.574219 34.113281 M 18.039062 34.117188 C 18.039062 34.855469 18.578125 35.394531 19.234375 35.394531 C 19.890625 35.394531 20.429688 34.855469 20.429688 34.117188 C 20.429688 33.527344 19.890625 32.988281 19.234375 32.988281 C 18.578125 32.988281 18.039062 33.527344 18.039062 34.117188 M 19.101562 31.792969 L 18.648438 31.460938 L 19.4375 30.484375 L 20.0625 30.9375 Z M 19.101562 31.792969 "/>
<path style=" stroke:none;fill-rule:nonzero;fill:rgb(0%,0%,0%);fill-opacity:1;" d="M 21.921875 31.9375 L 23.089844 31.9375 L 25.226562 34.710938 L 25.238281 34.710938 L 25.238281 31.9375 L 26.40625 31.9375 L 26.40625 36.472656 L 25.238281 36.472656 L 23.101562 33.691406 L 23.089844 33.691406 L 23.089844 36.472656 L 21.921875 36.472656 Z M 21.921875 31.9375 "/>
<path style=" stroke:none;fill-rule:nonzero;fill:rgb(0%,0%,0%);fill-opacity:1;" d="M 31.574219 34.113281 C 31.574219 35.488281 30.59375 36.460938 29.242188 36.460938 C 27.886719 36.460938 26.910156 35.488281 26.910156 34.113281 C 26.910156 32.824219 28.027344 31.921875 29.242188 31.921875 C 30.457031 31.921875 31.574219 32.824219 31.574219 34.113281 M 28.050781 34.117188 C 28.050781 34.851562 28.585938 35.386719 29.242188 35.386719 C 29.894531 35.386719 30.433594 34.851562 30.433594 34.117188 C 30.433594 33.53125 29.894531 32.992188 29.242188 32.992188 C 28.585938 32.992188 28.050781 33.53125 28.050781 34.117188 "/>
<path style=" stroke:none;fill-rule:nonzero;fill:rgb(0%,0%,0%);fill-opacity:1;" d="M 32.523438 31.9375 L 33.671875 31.9375 L 34.582031 34.359375 L 35.546875 31.9375 L 36.707031 31.9375 L 37.386719 36.472656 L 36.21875 36.472656 L 35.890625 33.859375 L 35.878906 33.859375 L 34.800781 36.472656 L 34.339844 36.472656 L 33.308594 33.859375 L 33.296875 33.859375 L 32.921875 36.472656 L 31.761719 36.472656 Z M 32.523438 31.9375 "/>
<path style=" stroke:none;fill-rule:nonzero;fill:rgb(0%,0%,0%);fill-opacity:1;" d="M 39.28125 35.683594 L 38.972656 36.472656 L 37.734375 36.472656 L 39.460938 31.9375 L 40.734375 31.9375 L 42.425781 36.472656 L 41.179688 36.472656 L 40.886719 35.683594 Z M 40.097656 33.335938 L 40.085938 33.335938 L 39.601562 34.78125 L 40.574219 34.78125 Z M 40.097656 33.335938 "/>
<path style=" stroke:none;fill-rule:nonzero;fill:rgb(0%,0%,0%);fill-opacity:1;" d="M 11.855469 41.007812 L 11.847656 41.007812 C 11.671875 41.269531 11.394531 41.445312 11.070312 41.445312 C 10.371094 41.445312 9.980469 40.859375 9.980469 40.199219 C 9.980469 39.570312 10.394531 38.996094 11.050781 38.996094 C 11.394531 38.996094 11.667969 39.171875 11.847656 39.449219 L 11.855469 39.449219 L 11.855469 37.574219 L 12.292969 37.574219 L 12.292969 41.367188 L 11.855469 41.367188 Z M 11.878906 40.214844 C 11.878906 39.769531 11.613281 39.390625 11.140625 39.390625 C 10.6875 39.390625 10.417969 39.789062 10.417969 40.214844 C 10.417969 40.648438 10.675781 41.050781 11.140625 41.050781 C 11.617188 41.050781 11.878906 40.667969 11.878906 40.214844 "/>
<path style=" stroke:none;fill-rule:nonzero;fill:rgb(0%,0%,0%);fill-opacity:1;" d="M 13.128906 40.289062 C 13.132812 40.683594 13.394531 41.050781 13.8125 41.050781 C 14.152344 41.050781 14.332031 40.878906 14.496094 40.605469 L 14.867188 40.816406 C 14.652344 41.214844 14.253906 41.445312 13.808594 41.445312 C 13.113281 41.445312 12.6875 40.914062 12.6875 40.234375 C 12.6875 39.527344 13.0625 38.996094 13.800781 38.996094 C 14.527344 38.996094 14.867188 39.535156 14.867188 40.21875 L 14.867188 40.289062 Z M 14.429688 39.953125 C 14.375 39.609375 14.152344 39.378906 13.800781 39.378906 C 13.457031 39.378906 13.207031 39.625 13.152344 39.953125 Z M 14.429688 39.953125 "/>
<path style=" stroke:none;fill-rule:nonzero;fill:rgb(0%,0%,0%);fill-opacity:1;" d="M 20.289062 39.511719 C 20.289062 40.613281 19.425781 41.445312 18.363281 41.445312 C 17.300781 41.445312 16.441406 40.613281 16.441406 39.511719 C 16.441406 38.449219 17.3125 37.578125 18.363281 37.578125 C 19.414062 37.578125 20.289062 38.449219 20.289062 39.511719 M 19.832031 39.511719 C 19.832031 38.695312 19.226562 38.011719 18.363281 38.011719 C 17.5 38.011719 16.898438 38.695312 16.898438 39.511719 C 16.898438 40.359375 17.570312 41.011719 18.363281 41.011719 C 19.15625 41.011719 19.832031 40.359375 19.832031 39.511719 "/>
<path style=" stroke:none;fill-rule:nonzero;fill:rgb(0%,0%,0%);fill-opacity:1;" d="M 22.359375 39.71875 C 22.183594 39.515625 21.96875 39.410156 21.707031 39.410156 C 21.277344 39.410156 20.945312 39.792969 20.945312 40.214844 C 20.945312 40.6875 21.273438 41.03125 21.734375 41.03125 C 21.988281 41.03125 22.191406 40.914062 22.359375 40.726562 L 22.359375 41.292969 C 22.160156 41.402344 21.960938 41.445312 21.730469 41.445312 C 21.058594 41.445312 20.507812 40.925781 20.507812 40.234375 C 20.507812 39.523438 21.050781 38.996094 21.753906 38.996094 C 21.960938 38.996094 22.183594 39.042969 22.359375 39.148438 Z M 22.359375 39.71875 "/>
<path style=" stroke:none;fill-rule:nonzero;fill:rgb(0%,0%,0%);fill-opacity:1;" d="M 24.507812 39.71875 C 24.332031 39.515625 24.117188 39.410156 23.851562 39.410156 C 23.425781 39.410156 23.09375 39.792969 23.09375 40.214844 C 23.09375 40.6875 23.421875 41.03125 23.882812 41.03125 C 24.136719 41.03125 24.339844 40.914062 24.507812 40.726562 L 24.507812 41.292969 C 24.308594 41.402344 24.105469 41.445312 23.878906 41.445312 C 23.207031 41.445312 22.65625 40.925781 22.65625 40.234375 C 22.65625 39.523438 23.203125 38.996094 23.902344 38.996094 C 24.105469 38.996094 24.332031 39.042969 24.507812 39.148438 Z M 24.507812 39.71875 "/>
<path style=" stroke:none;fill-rule:nonzero;fill:rgb(0%,0%,0%);fill-opacity:1;" d="M 25.597656 38.011719 C 25.597656 38.179688 25.460938 38.3125 25.296875 38.3125 C 25.128906 38.3125 24.992188 38.179688 24.992188 38.011719 C 24.992188 37.839844 25.128906 37.699219 25.296875 37.699219 C 25.460938 37.699219 25.597656 37.839844 25.597656 38.011719 M 25.515625 41.367188 L 25.078125 41.367188 L 25.078125 39.0625 L 25.515625 39.0625 Z M 25.515625 41.367188 "/>
<path style=" stroke:none;fill-rule:nonzero;fill:rgb(0%,0%,0%);fill-opacity:1;" d="M 27.914062 41.007812 L 27.90625 41.007812 C 27.730469 41.269531 27.453125 41.445312 27.132812 41.445312 C 26.429688 41.445312 26.042969 40.859375 26.042969 40.199219 C 26.042969 39.570312 26.453125 38.996094 27.113281 38.996094 C 27.453125 38.996094 27.726562 39.171875 27.90625 39.449219 L 27.914062 39.449219 L 27.914062 37.570312 L 28.355469 37.570312 L 28.355469 41.367188 L 27.914062 41.367188 Z M 27.941406 40.214844 C 27.941406 39.769531 27.671875 39.390625 27.199219 39.390625 C 26.746094 39.390625 26.480469 39.789062 26.480469 40.214844 C 26.480469 40.648438 26.738281 41.050781 27.199219 41.050781 C 27.679688 41.050781 27.941406 40.667969 27.941406 40.214844 "/>
<path style=" stroke:none;fill-rule:nonzero;fill:rgb(0%,0%,0%);fill-opacity:1;" d="M 29.1875 40.289062 C 29.191406 40.683594 29.457031 41.050781 29.875 41.050781 C 30.210938 41.050781 30.390625 40.878906 30.554688 40.605469 L 30.925781 40.816406 C 30.710938 41.214844 30.3125 41.445312 29.871094 41.445312 C 29.171875 41.445312 28.75 40.914062 28.75 40.234375 C 28.75 39.527344 29.125 38.996094 29.859375 38.996094 C 30.585938 38.996094 30.925781 39.535156 30.925781 40.21875 L 30.925781 40.289062 Z M 30.488281 39.953125 C 30.433594 39.609375 30.210938 39.378906 29.859375 39.378906 C 29.519531 39.378906 29.265625 39.625 29.210938 39.953125 Z M 30.488281 39.953125 "/>
<path style=" stroke:none;fill-rule:nonzero;fill:rgb(0%,0%,0%);fill-opacity:1;" d="M 31.742188 39.375 L 31.75 39.375 C 31.886719 39.128906 32.160156 38.996094 32.4375 38.996094 C 33.078125 38.996094 33.246094 39.433594 33.246094 39.992188 L 33.246094 41.367188 L 32.808594 41.367188 L 32.808594 40.046875 C 32.808594 39.65625 32.753906 39.390625 32.304688 39.390625 C 31.742188 39.390625 31.742188 39.890625 31.742188 40.308594 L 31.742188 41.367188 L 31.300781 41.367188 L 31.300781 39.0625 L 31.742188 39.0625 Z M 31.742188 39.375 "/>
<path style=" stroke:none;fill-rule:nonzero;fill:rgb(0%,0%,0%);fill-opacity:1;" d="M 34.351562 41.367188 L 33.914062 41.367188 L 33.914062 39.476562 L 33.675781 39.476562 L 33.675781 39.0625 L 33.914062 39.0625 L 33.914062 38.183594 L 34.351562 38.183594 L 34.351562 39.0625 L 34.777344 39.0625 L 34.777344 39.476562 L 34.351562 39.476562 Z M 34.351562 41.367188 "/>
<path style=" stroke:none;fill-rule:nonzero;fill:rgb(0%,0%,0%);fill-opacity:1;" d="M 35.28125 40.289062 C 35.285156 40.683594 35.546875 41.050781 35.96875 41.050781 C 36.304688 41.050781 36.484375 40.878906 36.648438 40.605469 L 37.019531 40.816406 C 36.804688 41.214844 36.40625 41.445312 35.960938 41.445312 C 35.265625 41.445312 34.84375 40.914062 34.84375 40.234375 C 34.84375 39.527344 35.21875 38.996094 35.953125 38.996094 C 36.679688 38.996094 37.019531 39.535156 37.019531 40.21875 L 37.019531 40.289062 Z M 36.582031 39.953125 C 36.527344 39.609375 36.304688 39.378906 35.953125 39.378906 C 35.613281 39.378906 35.359375 39.625 35.304688 39.953125 Z M 36.582031 39.953125 "/>
<path style=" stroke:none;fill-rule:nonzero;fill:rgb(0%,0%,0%);fill-opacity:1;" d="M 11.96875 26.304688 L 11.96875 28.496094 C 11.96875 29.101562 12.152344 29.660156 12.855469 29.660156 C 13.5625 29.660156 13.742188 29.101562 13.742188 28.496094 L 13.742188 26.304688 L 14.203125 26.304688 L 14.203125 28.652344 C 14.203125 29.46875 13.699219 30.09375 12.855469 30.09375 C 12.015625 30.09375 11.511719 29.46875 11.511719 28.652344 L 11.511719 26.304688 Z M 11.96875 26.304688 "/>
<path style=" stroke:none;fill-rule:nonzero;fill:rgb(0%,0%,0%);fill-opacity:1;" d="M 15.222656 28.023438 L 15.234375 28.023438 C 15.371094 27.777344 15.644531 27.644531 15.921875 27.644531 C 16.5625 27.644531 16.730469 28.082031 16.730469 28.644531 L 16.730469 30.015625 L 16.292969 30.015625 L 16.292969 28.695312 C 16.292969 28.304688 16.238281 28.039062 15.789062 28.039062 C 15.222656 28.039062 15.222656 28.539062 15.222656 28.957031 L 15.222656 30.015625 L 14.785156 30.015625 L 14.785156 27.710938 L 15.222656 27.710938 Z M 15.222656 28.023438 "/>
<path style=" stroke:none;fill-rule:nonzero;fill:rgb(0%,0%,0%);fill-opacity:1;" d="M 17.953125 26.660156 C 17.953125 26.828125 17.816406 26.960938 17.648438 26.960938 C 17.484375 26.960938 17.347656 26.828125 17.347656 26.660156 C 17.347656 26.488281 17.484375 26.347656 17.648438 26.347656 C 17.816406 26.347656 17.953125 26.488281 17.953125 26.660156 M 17.871094 30.015625 L 17.429688 30.015625 L 17.429688 27.710938 L 17.871094 27.710938 Z M 17.871094 30.015625 "/>
<path style=" stroke:none;fill-rule:nonzero;fill:rgb(0%,0%,0%);fill-opacity:1;" d="M 19.351562 29.148438 L 20.007812 27.710938 L 20.5 27.710938 L 19.351562 30.09375 L 18.207031 27.710938 L 18.699219 27.710938 Z M 19.351562 29.148438 "/>
<path style=" stroke:none;fill-rule:nonzero;fill:rgb(0%,0%,0%);fill-opacity:1;" d="M 21 28.9375 C 21.007812 29.332031 21.269531 29.699219 21.6875 29.699219 C 22.023438 29.699219 22.203125 29.527344 22.371094 29.253906 L 22.742188 29.464844 C 22.527344 29.863281 22.125 30.09375 21.683594 30.09375 C 20.988281 30.09375 20.5625 29.5625 20.5625 28.882812 C 20.5625 28.175781 20.9375 27.644531 21.671875 27.644531 C 22.398438 27.644531 22.742188 28.183594 22.742188 28.871094 L 22.742188 28.9375 Z M 22.300781 28.601562 C 22.25 28.257812 22.023438 28.027344 21.675781 28.027344 C 21.332031 28.027344 21.082031 28.273438 21.027344 28.601562 Z M 22.300781 28.601562 "/>
<path style=" stroke:none;fill-rule:nonzero;fill:rgb(0%,0%,0%);fill-opacity:1;" d="M 23.582031 28.085938 L 23.597656 28.085938 C 23.707031 27.816406 23.929688 27.644531 24.222656 27.644531 C 24.347656 27.644531 24.476562 27.6875 24.582031 27.757812 L 24.382812 28.160156 C 24.304688 28.089844 24.214844 28.066406 24.113281 28.066406 C 23.640625 28.066406 23.582031 28.511719 23.582031 28.882812 L 23.582031 30.015625 L 23.144531 30.015625 L 23.144531 27.710938 L 23.582031 27.710938 Z M 23.582031 28.085938 "/>
<path style=" stroke:none;fill-rule:nonzero;fill:rgb(0%,0%,0%);fill-opacity:1;" d="M 25.742188 28.238281 C 25.6875 28.125 25.574219 28.039062 25.449219 28.039062 C 25.328125 28.039062 25.210938 28.136719 25.210938 28.261719 C 25.210938 28.464844 25.472656 28.554688 25.742188 28.675781 C 26.007812 28.800781 26.265625 28.96875 26.265625 29.332031 C 26.265625 29.769531 25.90625 30.09375 25.484375 30.09375 C 25.152344 30.09375 24.816406 29.902344 24.695312 29.578125 L 25.070312 29.40625 C 25.160156 29.578125 25.273438 29.699219 25.484375 29.699219 C 25.667969 29.699219 25.828125 29.574219 25.828125 29.375 C 25.828125 29.253906 25.769531 29.195312 25.667969 29.125 L 25.238281 28.894531 C 24.988281 28.757812 24.800781 28.628906 24.800781 28.3125 C 24.800781 27.9375 25.101562 27.644531 25.472656 27.644531 C 25.75 27.644531 25.976562 27.796875 26.097656 28.046875 Z M 25.742188 28.238281 "/>
<path style=" stroke:none;fill-rule:nonzero;fill:rgb(0%,0%,0%);fill-opacity:1;" d="M 27.316406 26.660156 C 27.316406 26.828125 27.179688 26.960938 27.011719 26.960938 C 26.847656 26.960938 26.710938 26.828125 26.710938 26.660156 C 26.710938 26.488281 26.847656 26.347656 27.011719 26.347656 C 27.179688 26.347656 27.316406 26.488281 27.316406 26.660156 M 27.230469 30.015625 L 26.792969 30.015625 L 26.792969 27.710938 L 27.230469 27.710938 Z M 27.230469 30.015625 "/>
<path style=" stroke:none;fill-rule:nonzero;fill:rgb(0%,0%,0%);fill-opacity:1;" d="M 29.632812 29.65625 L 29.625 29.65625 C 29.449219 29.917969 29.171875 30.09375 28.847656 30.09375 C 28.148438 30.09375 27.757812 29.507812 27.757812 28.847656 C 27.757812 28.21875 28.171875 27.644531 28.828125 27.644531 C 29.171875 27.644531 29.445312 27.820312 29.625 28.097656 L 29.632812 28.097656 L 29.632812 26.300781 L 30.070312 26.300781 L 30.070312 30.015625 L 29.632812 30.015625 Z M 29.65625 28.863281 C 29.65625 28.417969 29.390625 28.039062 28.917969 28.039062 C 28.464844 28.039062 28.195312 28.4375 28.195312 28.863281 C 28.195312 29.296875 28.453125 29.699219 28.917969 29.699219 C 29.394531 29.699219 29.65625 29.316406 29.65625 28.863281 "/>
<path style=" stroke:none;fill-rule:nonzero;fill:rgb(0%,0%,0%);fill-opacity:1;" d="M 32.78125 30.015625 L 32.339844 30.015625 L 32.339844 29.65625 L 32.332031 29.65625 C 32.15625 29.917969 31.882812 30.09375 31.558594 30.09375 C 30.863281 30.09375 30.464844 29.507812 30.464844 28.847656 C 30.464844 28.21875 30.878906 27.644531 31.542969 27.644531 C 31.878906 27.644531 32.152344 27.820312 32.332031 28.097656 L 32.339844 28.097656 L 32.339844 27.710938 L 32.78125 27.710938 Z M 32.367188 28.863281 C 32.367188 28.417969 32.097656 28.039062 31.625 28.039062 C 31.171875 28.039062 30.90625 28.4375 30.90625 28.863281 C 30.90625 29.296875 31.164062 29.699219 31.625 29.699219 C 32.105469 29.699219 32.367188 29.316406 32.367188 28.863281 "/>
<path style=" stroke:none;fill-rule:nonzero;fill:rgb(0%,0%,0%);fill-opacity:1;" d="M 35.050781 29.65625 L 35.039062 29.65625 C 34.863281 29.917969 34.585938 30.09375 34.265625 30.09375 C 33.566406 30.09375 33.175781 29.507812 33.175781 28.847656 C 33.175781 28.21875 33.589844 27.644531 34.246094 27.644531 C 34.585938 27.644531 34.859375 27.820312 35.039062 28.097656 L 35.050781 28.097656 L 35.050781 26.300781 L 35.488281 26.300781 L 35.488281 30.015625 L 35.050781 30.015625 Z M 35.074219 28.863281 C 35.074219 28.417969 34.804688 28.039062 34.332031 28.039062 C 33.878906 28.039062 33.613281 28.4375 33.613281 28.863281 C 33.613281 29.296875 33.871094 29.699219 34.332031 29.699219 C 34.808594 29.699219 35.074219 29.316406 35.074219 28.863281 "/>
<path style=" stroke:none;fill-rule:nonzero;fill:rgb(100%,0%,0%);fill-opacity:1;" d="M 25.746094 4.550781 L 25.746094 5.140625 C 25.085938 4.765625 24.328125 4.550781 23.519531 4.550781 C 21.019531 4.550781 18.992188 6.59375 18.992188 9.109375 C 18.992188 11.625 21.019531 13.667969 23.519531 13.667969 C 24.328125 13.667969 25.085938 13.453125 25.746094 13.078125 L 25.746094 13.667969 L 28.007812 13.667969 L 28.007812 4.550781 Z M 23.515625 11.363281 C 22.265625 11.363281 21.253906 10.347656 21.253906 9.089844 C 21.253906 7.832031 22.265625 6.8125 23.515625 6.8125 C 24.640625 6.8125 25.570312 7.636719 25.746094 8.71875 C 25.765625 8.839844 25.777344 8.960938 25.777344 9.089844 C 25.777344 9.214844 25.765625 9.339844 25.746094 9.457031 C 25.570312 10.539062 24.640625 11.363281 23.515625 11.363281 "/>
<path style=" stroke:none;fill-rule:nonzero;fill:rgb(100%,0%,0%);fill-opacity:1;" d="M 23.5 15.054688 C 21.007812 15.054688 18.988281 17.09375 18.988281 19.613281 C 18.988281 22.128906 21.007812 24.167969 23.5 24.167969 C 25.992188 24.167969 28.011719 22.128906 28.011719 19.613281 C 28.011719 17.09375 25.992188 15.054688 23.5 15.054688 M 23.496094 21.867188 C 22.25 21.867188 21.242188 20.847656 21.242188 19.589844 C 21.242188 18.332031 22.25 17.316406 23.496094 17.316406 C 24.738281 17.316406 25.746094 18.332031 25.746094 19.589844 C 25.746094 20.847656 24.738281 21.867188 23.496094 21.867188 "/>
<path style=" stroke:none;fill-rule:nonzero;fill:rgb(100%,0%,0%);fill-opacity:1;" d="M 17.78125 4.550781 L 17.78125 20.613281 C 17.871094 22.980469 19.699219 24.890625 21.988281 25.066406 L 15.675781 25.066406 L 15.675781 25.0625 L 15.214844 25.0625 C 12.722656 25.0625 10.703125 23.023438 10.703125 20.507812 L 10.703125 4.550781 Z M 17.78125 4.550781 "/>
<path style=" stroke:none;fill-rule:nonzero;fill:rgb(100%,0%,0%);fill-opacity:1;" d="M 29.21875 4.550781 L 29.21875 20.613281 C 29.128906 22.980469 27.300781 24.890625 25.011719 25.066406 L 31.324219 25.066406 L 31.324219 25.0625 L 31.785156 25.0625 C 34.277344 25.0625 36.296875 23.023438 36.296875 20.507812 L 36.296875 4.550781 Z M 29.21875 4.550781 "/>
</g>
</svg>