<svg xmlns="http://www.w3.org/2000/svg" xmlns:xlink="http://www.w3.org/1999/xlink" version="1.1" width="" height="46" viewBox="0 0.4 154 45.19">
<g id="surface1">
<path style=" stroke:none;fill-rule:nonzero;fill:rgb(100%,0%,0%);fill-opacity:1;" d="M 0 18.828125 L 9.652344 18.828125 L 9.652344 8.761719 L 32.375 8.761719 L 32.375 0.410156 L 0 0.410156 Z M 0 18.828125 "/>
<path style=" stroke:none;fill-rule:nonzero;fill:rgb(100%,0%,0%);fill-opacity:1;" d="M 0 45.597656 L 32.375 45.597656 L 32.375 37.246094 L 9.652344 37.246094 L 9.652344 27.179688 L 0 27.179688 Z M 0 45.597656 "/>
<path style=" stroke:none;fill-rule:nonzero;fill:rgb(100%,0%,0%);fill-opacity:1;" d="M 9.652344 18.828125 L 30.429688 18.828125 L 30.429688 27.179688 L 9.652344 27.179688 Z M 9.652344 18.828125 "/>
<path style=" stroke:none;fill-rule:nonzero;fill:rgb(100%,0%,0%);fill-opacity:1;" d="M 72.613281 4.5625 C 71.242188 3.230469 69.613281 2.199219 67.820312 1.546875 C 65.515625 0.726562 63.089844 0.34375 60.648438 0.410156 L 40.648438 0.410156 L 40.648438 45.597656 L 50.300781 45.597656 L 50.300781 27.179688 L 60.648438 27.179688 C 63.070312 27.246094 65.496094 26.855469 67.792969 26.035156 C 69.585938 25.394531 71.234375 24.367188 72.613281 23.027344 C 73.816406 21.828125 74.742188 20.375 75.316406 18.761719 C 76.433594 15.558594 76.433594 12.058594 75.316406 8.855469 C 74.742188 7.234375 73.824219 5.773438 72.613281 4.5625 Z M 65.867188 16.378906 C 65.367188 17.050781 64.710938 17.570312 63.949219 17.914062 C 63.070312 18.289062 62.144531 18.539062 61.191406 18.640625 C 60.109375 18.761719 59.027344 18.828125 57.933594 18.828125 L 50.300781 18.828125 L 50.300781 8.761719 L 57.945312 8.761719 C 59.027344 8.761719 60.121094 8.816406 61.203125 8.949219 C 62.15625 9.050781 63.082031 9.292969 63.960938 9.683594 C 64.71875 10.019531 65.375 10.539062 65.867188 11.210938 C 66.367188 11.964844 66.625 12.859375 66.589844 13.773438 C 66.632812 14.695312 66.375 15.617188 65.867188 16.378906 Z M 65.867188 16.378906 "/>
<path style=" stroke:none;fill-rule:nonzero;fill:rgb(100%,0%,0%);fill-opacity:1;" d="M 131.28125 37.246094 L 131.28125 0.410156 L 121.625 0.410156 L 121.625 45.597656 L 154 45.597656 L 154 37.246094 Z M 131.28125 37.246094 "/>
<path style=" stroke:none;fill-rule:nonzero;fill:rgb(100%,0%,0%);fill-opacity:1;" d="M 82.257812 18.828125 L 91.910156 18.828125 L 91.910156 8.761719 L 114.628906 8.761719 L 114.628906 0.410156 L 82.257812 0.410156 Z M 82.257812 18.828125 "/>
<path style=" stroke:none;fill-rule:nonzero;fill:rgb(100%,0%,0%);fill-opacity:1;" d="M 82.257812 27.179688 L 91.910156 27.179688 L 91.910156 45.597656 L 82.257812 45.597656 Z M 82.257812 27.179688 "/>
<path style=" stroke:none;fill-rule:nonzero;fill:rgb(100%,0%,0%);fill-opacity:1;" d="M 91.910156 18.828125 L 112.695312 18.828125 L 112.695312 27.179688 L 91.910156 27.179688 Z M 91.910156 18.828125 "/>
</g>
</svg>