<svg xmlns="http://www.w3.org/2000/svg" xmlns:xlink="http://www.w3.org/1999/xlink" version="1.1" width="" height="46" viewBox="0 0 159 46.09">
<g id="surface1">
<path style=" stroke:none;fill-rule:nonzero;fill:rgb(85.098039%,0%,36.078431%);fill-opacity:1;" d="M 10.058594 10.84375 L 11.050781 12.125 L 11.777344 11.5625 L 10.164062 9.472656 L 9.59375 9.914062 C 9.816406 10.265625 9.5 10.6875 9.097656 10.992188 L 9.382812 11.367188 L 10.058594 10.84375 "/>
<path style=" stroke:none;fill-rule:nonzero;fill:rgb(85.098039%,0%,36.078431%);fill-opacity:1;" d="M 12.6875 9.636719 C 12.738281 9.433594 12.878906 9.3125 13.097656 9.195312 C 13.414062 9.035156 13.675781 9.101562 13.796875 9.332031 C 13.914062 9.554688 13.761719 9.824219 13.460938 9.976562 C 13.230469 10.097656 12.90625 10.132812 12.804688 9.945312 L 12.03125 10.34375 C 12.363281 10.882812 13.015625 10.796875 13.703125 10.445312 C 14.4375 10.0625 14.851562 9.484375 14.558594 8.902344 C 14.300781 8.414062 13.746094 8.351562 13.101562 8.683594 C 12.859375 8.8125 12.667969 8.972656 12.566406 9.171875 L 12.5625 9.175781 L 12.457031 8.683594 L 13.863281 7.964844 L 13.613281 7.480469 L 11.617188 8.511719 L 11.988281 9.996094 L 12.6875 9.636719 "/>
<path style=" stroke:none;fill-rule:nonzero;fill:rgb(85.098039%,0%,36.078431%);fill-opacity:1;" d="M 29.414062 8.824219 C 29.171875 8.695312 28.929688 8.644531 28.714844 8.675781 L 28.699219 8.671875 L 29.039062 8.304688 L 30.449219 9.015625 L 30.691406 8.53125 L 28.6875 7.511719 L 27.707031 8.691406 L 28.40625 9.042969 C 28.597656 8.964844 28.785156 9.011719 29 9.125 C 29.320312 9.285156 29.421875 9.535156 29.304688 9.765625 C 29.191406 9.996094 28.890625 10.027344 28.585938 9.875 C 28.355469 9.761719 28.140625 9.511719 28.226562 9.324219 L 27.449219 8.933594 C 27.214844 9.515625 27.660156 9.992188 28.355469 10.34375 C 29.089844 10.722656 29.804688 10.714844 30.097656 10.132812 C 30.339844 9.636719 30.066406 9.152344 29.414062 8.824219 "/>
<path style=" stroke:none;fill-rule:nonzero;fill:rgb(85.098039%,0%,36.078431%);fill-opacity:1;" d="M 32.605469 9.835938 C 32.023438 9.382812 31.296875 9.304688 30.945312 9.753906 C 30.632812 10.164062 30.785156 10.757812 31.34375 11.195312 C 31.585938 11.382812 31.898438 11.523438 32.144531 11.457031 L 32.152344 11.464844 C 31.921875 11.726562 31.597656 11.882812 31.222656 11.59375 C 31.136719 11.527344 31.0625 11.4375 31.015625 11.355469 C 30.972656 11.273438 30.960938 11.175781 30.992188 11.097656 L 30.351562 10.597656 C 30.148438 11.066406 30.378906 11.535156 30.894531 11.9375 C 31.789062 12.632812 32.527344 12.367188 32.988281 11.765625 C 33.421875 11.207031 33.429688 10.472656 32.605469 9.835938 M 32.515625 10.957031 C 32.367188 11.152344 32.074219 11.164062 31.78125 10.9375 C 31.5 10.722656 31.449219 10.433594 31.605469 10.242188 C 31.738281 10.0625 32.042969 10.054688 32.300781 10.261719 C 32.597656 10.484375 32.664062 10.773438 32.515625 10.957031 "/>
<path style=" stroke:none;fill-rule:nonzero;fill:rgb(85.098039%,0%,36.078431%);fill-opacity:1;" d="M 3.515625 20.6875 C 3.972656 20.839844 4.3125 20.390625 4.585938 19.921875 C 4.855469 19.457031 5.058594 18.960938 5.257812 19.027344 C 5.421875 19.085938 5.390625 19.347656 5.328125 19.539062 C 5.238281 19.816406 5.066406 20.089844 4.835938 19.996094 L 4.535156 20.902344 C 5.117188 21.089844 5.59375 20.476562 5.816406 19.78125 C 6.035156 19.136719 6.066406 18.296875 5.511719 18.109375 C 5.039062 17.957031 4.703125 18.417969 4.433594 18.878906 C 4.164062 19.347656 3.960938 19.828125 3.730469 19.75 C 3.539062 19.6875 3.566406 19.386719 3.65625 19.109375 C 3.78125 18.726562 3.960938 18.507812 4.269531 18.589844 L 4.566406 17.679688 C 3.910156 17.46875 3.417969 18.089844 3.152344 18.886719 C 2.902344 19.648438 2.863281 20.46875 3.515625 20.6875 "/>
<path style=" stroke:none;fill-rule:nonzero;fill:rgb(85.098039%,0%,36.078431%);fill-opacity:1;" d="M 3.214844 25.25 L 3.292969 24.292969 C 2.984375 24.238281 2.8125 23.96875 2.84375 23.519531 C 2.894531 22.910156 3.3125 22.703125 3.710938 22.738281 C 4.113281 22.769531 4.492188 23.03125 4.445312 23.648438 C 4.414062 24.042969 4.25 24.320312 3.972656 24.34375 L 3.902344 25.300781 C 4.554688 25.324219 4.988281 24.5 5.046875 23.710938 C 5.136719 22.609375 4.566406 21.847656 3.78125 21.78125 C 3.003906 21.722656 2.328125 22.390625 2.246094 23.492188 C 2.175781 24.421875 2.527344 25.140625 3.214844 25.25 "/>
<path style=" stroke:none;fill-rule:nonzero;fill:rgb(85.098039%,0%,36.078431%);fill-opacity:1;" d="M 5.292969 28.304688 L 4.324219 28.472656 L 4.113281 27.234375 L 5.085938 27.070312 L 4.917969 26.128906 L 2.257812 26.589844 L 2.425781 27.53125 L 3.515625 27.339844 L 3.730469 28.574219 L 2.632812 28.765625 L 2.792969 29.703125 L 5.453125 29.246094 Z M 5.292969 28.304688 "/>
<path style=" stroke:none;fill-rule:nonzero;fill:rgb(85.098039%,0%,36.078431%);fill-opacity:1;" d="M 6.417969 31.542969 C 5.945312 30.492188 5.117188 30.152344 4.394531 30.472656 C 3.6875 30.792969 3.382812 31.644531 3.851562 32.695312 C 4.320312 33.746094 5.15625 34.085938 5.867188 33.765625 C 6.582031 33.445312 6.882812 32.59375 6.417969 31.542969 M 5.480469 32.894531 C 5.117188 33.0625 4.652344 33.007812 4.402344 32.445312 C 4.152344 31.886719 4.421875 31.503906 4.785156 31.34375 C 5.15625 31.175781 5.613281 31.226562 5.863281 31.792969 C 6.117188 32.347656 5.847656 32.726562 5.480469 32.894531 "/>
<path style=" stroke:none;fill-rule:nonzero;fill:rgb(85.098039%,0%,36.078431%);fill-opacity:1;" d="M 8.089844 34.542969 L 7.515625 33.777344 L 5.371094 35.417969 L 6.972656 37.539062 L 7.449219 37.167969 L 6.425781 35.808594 Z M 8.089844 34.542969 "/>
<path style=" stroke:none;fill-rule:nonzero;fill:rgb(85.098039%,0%,36.078431%);fill-opacity:1;" d="M 7.46875 38.125 L 8.210938 38.765625 L 8.695312 38.539062 L 9.664062 39.375 L 9.519531 39.890625 L 10.269531 40.539062 L 10.992188 37.589844 L 10.265625 36.957031 Z M 9.832031 38.828125 L 9.207031 38.289062 L 10.128906 37.839844 L 10.144531 37.847656 Z M 9.832031 38.828125 "/>
<path style=" stroke:none;fill-rule:nonzero;fill:rgb(85.098039%,0%,36.078431%);fill-opacity:1;" d="M 17.78125 41.40625 C 18.15625 41.488281 18.421875 41.6875 18.410156 41.917969 L 19.335938 42.109375 C 19.386719 41.429688 18.660156 40.96875 17.917969 40.816406 C 16.839844 40.589844 16.019531 41.058594 15.859375 41.828125 C 15.699219 42.597656 16.273438 43.359375 17.351562 43.582031 C 17.683594 43.652344 18.117188 43.648438 18.417969 43.441406 L 18.410156 43.742188 L 19.011719 43.871094 L 19.308594 42.417969 L 17.8125 42.101562 L 17.710938 42.617188 L 18.351562 42.75 C 18.257812 42.980469 17.914062 43.078125 17.453125 42.980469 C 16.855469 42.859375 16.707031 42.417969 16.785156 42.019531 C 16.867188 41.628906 17.179688 41.28125 17.777344 41.40625 "/>
<path style=" stroke:none;fill-rule:nonzero;fill:rgb(85.098039%,0%,36.078431%);fill-opacity:1;" d="M 21.691406 43.3125 L 21.664062 42.796875 L 23.449219 42.707031 L 23.417969 42.160156 L 21.640625 42.25 L 21.613281 41.777344 L 23.566406 41.671875 L 23.539062 41.109375 L 20.636719 41.257812 L 20.769531 43.96875 L 23.726562 43.820312 L 23.691406 43.210938 Z M 21.691406 43.3125 "/>
<path style=" stroke:none;fill-rule:nonzero;fill:rgb(85.098039%,0%,36.078431%);fill-opacity:1;" d="M 26.699219 40.269531 L 27.195312 41.867188 L 27.183594 41.871094 L 25.480469 40.65625 L 24.554688 40.941406 L 25.351562 43.53125 L 26.207031 43.261719 L 25.707031 41.65625 L 25.714844 41.648438 L 27.425781 42.886719 L 28.355469 42.597656 L 27.550781 40.007812 Z M 26.699219 40.269531 "/>
<path style=" stroke:none;fill-rule:nonzero;fill:rgb(85.098039%,0%,36.078431%);fill-opacity:1;" d="M 30.449219 40.820312 L 30.175781 40.378906 L 31.691406 39.4375 L 31.414062 38.976562 L 29.886719 39.917969 L 29.636719 39.515625 L 31.304688 38.480469 L 31.011719 37.996094 L 28.542969 39.535156 L 29.957031 41.839844 L 32.472656 40.277344 L 32.152344 39.765625 Z M 30.449219 40.820312 "/>
<path style=" stroke:none;fill-rule:nonzero;fill:rgb(85.098039%,0%,36.078431%);fill-opacity:1;" d="M 33.269531 35.859375 L 34.1875 37.789062 L 34.179688 37.804688 L 32.253906 36.886719 L 31.558594 37.597656 L 34.28125 38.6875 L 35.046875 37.90625 L 33.964844 35.15625 Z M 33.269531 35.859375 "/>
<path style=" stroke:none;fill-rule:nonzero;fill:rgb(85.098039%,0%,36.078431%);fill-opacity:1;" d="M 36.675781 34.824219 L 36.234375 34.558594 L 37.167969 33.023438 L 36.699219 32.742188 L 35.777344 34.273438 L 35.367188 34.027344 L 36.382812 32.347656 L 35.898438 32.054688 L 34.390625 34.546875 L 36.699219 35.957031 L 38.230469 33.417969 L 37.714844 33.097656 Z M 36.675781 34.824219 "/>
<path style=" stroke:none;fill-rule:nonzero;fill:rgb(85.098039%,0%,36.078431%);fill-opacity:1;" d="M 36.980469 28.945312 L 38.578125 29.425781 L 38.570312 29.433594 L 36.609375 30.171875 L 36.332031 31.105469 L 38.914062 31.886719 L 39.175781 31.03125 L 37.5625 30.542969 L 37.566406 30.535156 L 39.546875 29.804688 L 39.828125 28.871094 L 37.242188 28.089844 Z M 36.980469 28.945312 "/>
<path style=" stroke:none;fill-rule:nonzero;fill:rgb(85.098039%,0%,36.078431%);fill-opacity:1;" d="M 39.378906 24.09375 C 38.894531 24.078125 38.691406 24.601562 38.558594 25.121094 C 38.421875 25.644531 38.359375 26.179688 38.15625 26.164062 C 37.976562 26.160156 37.9375 25.902344 37.945312 25.699219 C 37.957031 25.402344 38.046875 25.09375 38.296875 25.121094 L 38.339844 24.171875 C 37.726562 24.148438 37.433594 24.871094 37.402344 25.59375 C 37.375 26.28125 37.566406 27.09375 38.15625 27.121094 C 38.652344 27.144531 38.851562 26.601562 38.984375 26.089844 C 39.117188 25.5625 39.183594 25.042969 39.425781 25.058594 C 39.621094 25.0625 39.6875 25.363281 39.671875 25.644531 C 39.652344 26.054688 39.539062 26.3125 39.21875 26.320312 L 39.183594 27.273438 C 39.871094 27.300781 40.175781 26.570312 40.210938 25.730469 C 40.246094 24.929688 40.0625 24.128906 39.378906 24.09375 "/>
<path style=" stroke:none;fill-rule:nonzero;fill:rgb(85.098039%,0%,36.078431%);fill-opacity:1;" d="M 37.375 22.992188 L 40.050781 22.601562 L 39.914062 21.660156 L 37.242188 22.050781 Z M 37.375 22.992188 "/>
<path style=" stroke:none;fill-rule:nonzero;fill:rgb(85.098039%,0%,36.078431%);fill-opacity:1;" d="M 37.804688 20.726562 C 38.269531 20.5625 38.257812 19.988281 38.195312 19.457031 C 38.128906 18.925781 38.003906 18.410156 38.226562 18.335938 C 38.417969 18.269531 38.582031 18.527344 38.679688 18.796875 C 38.804688 19.179688 38.800781 19.460938 38.5 19.589844 L 38.8125 20.488281 C 39.460938 20.257812 39.480469 19.46875 39.207031 18.675781 C 38.945312 17.910156 38.488281 17.238281 37.84375 17.460938 C 37.375 17.617188 37.375 18.179688 37.445312 18.71875 C 37.515625 19.257812 37.652344 19.769531 37.453125 19.832031 C 37.28125 19.890625 37.152344 19.667969 37.082031 19.476562 C 36.988281 19.199219 36.96875 18.878906 37.203125 18.816406 L 36.890625 17.910156 C 36.316406 18.117188 36.3125 18.890625 36.546875 19.578125 C 36.769531 20.230469 37.242188 20.917969 37.804688 20.726562 "/>
<path style=" stroke:none;fill-rule:nonzero;fill:rgb(85.098039%,0%,36.078431%);fill-opacity:1;" d="M 12.695312 40.5 C 12.476562 40.789062 12.535156 41.191406 12.824219 41.410156 C 13.101562 41.621094 13.503906 41.566406 13.722656 41.28125 C 13.933594 40.996094 13.875 40.589844 13.59375 40.378906 C 13.308594 40.160156 12.90625 40.21875 12.695312 40.5 "/>
<path style=" stroke:none;fill-rule:nonzero;fill:rgb(85.098039%,0%,36.078431%);fill-opacity:1;" d="M 7.425781 14.675781 C 7.636719 14.386719 7.574219 13.984375 7.285156 13.773438 C 7 13.558594 6.597656 13.625 6.386719 13.914062 C 6.175781 14.199219 6.238281 14.605469 6.527344 14.816406 C 6.8125 15.027344 7.214844 14.964844 7.425781 14.675781 "/>
<path style=" stroke:none;fill-rule:nonzero;fill:rgb(85.098039%,0%,36.078431%);fill-opacity:1;" d="M 34.804688 13.914062 C 34.59375 14.199219 34.660156 14.609375 34.945312 14.816406 C 35.234375 15.027344 35.640625 14.964844 35.847656 14.675781 C 36.054688 14.386719 35.992188 13.984375 35.707031 13.773438 C 35.417969 13.558594 35.015625 13.625 34.804688 13.914062 "/>
<path style=" stroke:none;fill-rule:nonzero;fill:rgb(85.098039%,0%,36.078431%);fill-opacity:1;" d="M 22.753906 6.863281 L 22.238281 7.683594 L 23.515625 7.683594 L 23.515625 7.285156 L 23.011719 7.285156 L 23.292969 6.871094 L 23.011719 6.433594 L 23.507812 6.433594 L 23.507812 6.042969 L 22.238281 6.042969 Z M 22.753906 6.863281 "/>
<path style=" stroke:none;fill-rule:nonzero;fill:rgb(85.098039%,0%,36.078431%);fill-opacity:1;" d="M 19.992188 7.285156 L 19.679688 7.292969 L 19.679688 6.433594 L 19.96875 6.433594 L 19.96875 6.042969 L 18.921875 6.042969 L 18.921875 6.433594 L 19.207031 6.433594 L 19.207031 7.292969 L 18.902344 7.285156 L 18.902344 7.683594 L 19.992188 7.683594 Z M 19.992188 7.285156 "/>
<path style=" stroke:none;fill-rule:nonzero;fill:rgb(85.098039%,0%,36.078431%);fill-opacity:1;" d="M 21.484375 6.621094 L 20.816406 6.621094 L 20.824219 6.035156 L 20.332031 6.035156 L 20.332031 7.683594 L 20.824219 7.683594 L 20.816406 7.03125 L 21.484375 7.03125 L 21.484375 7.683594 L 21.96875 7.683594 L 21.96875 6.035156 L 21.484375 6.035156 Z M 21.484375 6.621094 "/>
<path style=" stroke:none;fill-rule:nonzero;fill:rgb(85.098039%,0%,36.078431%);fill-opacity:1;" d="M 20.945312 5.0625 C 20.945312 4.933594 21.03125 4.859375 21.167969 4.859375 C 21.28125 4.859375 21.363281 4.949219 21.363281 5.0625 L 21.371094 5.640625 L 22.285156 5.640625 L 22.285156 5.152344 L 21.722656 5.152344 L 21.722656 5.03125 C 21.722656 4.679688 21.554688 4.394531 21.160156 4.394531 C 20.855469 4.394531 20.644531 4.5625 20.605469 4.859375 C 20.597656 4.921875 20.597656 4.992188 20.597656 5.054688 L 20.597656 5.152344 L 20.042969 5.152344 L 20.039062 5.640625 L 20.945312 5.640625 L 20.945312 5.0625 "/>
<path style=" stroke:none;fill-rule:nonzero;fill:rgb(85.098039%,0%,36.078431%);fill-opacity:1;" d="M 21.160156 8.066406 C 21 8.066406 20.875 8.203125 20.875 8.363281 C 20.875 8.53125 21 8.65625 21.160156 8.65625 C 21.328125 8.65625 21.453125 8.53125 21.453125 8.363281 C 21.453125 8.203125 21.328125 8.066406 21.160156 8.066406 "/>
<path style=" stroke:none;fill-rule:nonzero;fill:rgb(85.098039%,0%,36.078431%);fill-opacity:1;" d="M 25.691406 4.152344 L 26.117188 3.621094 L 23.605469 3.992188 L 24 1.492188 L 22.015625 3.109375 L 21.101562 0.710938 L 20.195312 3.109375 L 18.214844 1.488281 L 18.613281 4.023438 L 16.09375 3.613281 L 16.535156 4.160156 C 7.085938 6.273438 0 14.753906 0 24.871094 C 0 36.574219 9.472656 46.09375 21.121094 46.09375 C 32.769531 46.09375 42.25 36.574219 42.25 24.871094 C 42.25 14.746094 35.152344 6.253906 25.691406 4.152344 M 21.152344 3.632812 C 22.75 3.632812 24.050781 4.941406 24.050781 6.542969 C 24.050781 8.144531 22.75 9.453125 21.152344 9.453125 C 19.554688 9.453125 18.25 8.144531 18.25 6.542969 C 18.25 4.941406 19.554688 3.632812 21.152344 3.632812 M 23.820312 10.214844 C 26.972656 10.804688 29.777344 12.386719 31.898438 14.636719 L 30.539062 14.636719 L 30.539062 15.648438 L 29.308594 15.648438 L 29.308594 14.636719 L 27.621094 14.636719 L 27.621094 16.039062 L 26.628906 16.039062 C 26.628906 16.039062 26.640625 13.898438 26.640625 13.878906 C 26.640625 13.398438 26.25 13.003906 25.765625 13.003906 C 25.289062 13.003906 24.898438 13.398438 24.898438 13.878906 C 24.898438 13.898438 24.90625 25.210938 24.90625 25.210938 L 23.183594 26.804688 L 23.183594 27.652344 C 22.425781 27.761719 21.792969 28.25 21.472656 28.914062 L 21.472656 11.652344 L 22.054688 9.972656 L 24 11.5625 Z M 24.625 34.664062 C 24.195312 34.828125 23.890625 35.246094 23.890625 35.738281 C 23.890625 36.378906 24.40625 36.898438 25.039062 36.898438 L 26.492188 36.898438 C 27.132812 36.898438 27.648438 36.378906 27.648438 35.738281 C 27.648438 35.246094 27.34375 34.828125 26.914062 34.664062 C 28.878906 33.976562 30.289062 32.097656 30.289062 29.890625 C 30.289062 28.746094 29.449219 27.8125 28.355469 27.652344 L 28.355469 26.804688 L 26.628906 25.210938 L 26.628906 21.890625 L 27.621094 21.890625 L 27.621094 23.292969 L 29.308594 23.292969 L 29.308594 22.230469 L 30.539062 22.230469 L 30.539062 23.292969 L 32.222656 23.292969 L 32.222656 19.539062 L 30.539062 19.539062 L 30.539062 20.449219 L 29.308594 20.449219 L 29.308594 19.539062 L 27.910156 19.539062 L 27.910156 18.386719 L 29.308594 18.386719 L 29.308594 17.480469 L 30.539062 17.480469 L 30.539062 18.386719 L 32.222656 18.386719 L 32.222656 14.984375 C 34.550781 17.617188 35.96875 21.082031 35.96875 24.871094 C 35.96875 32.976562 29.5 39.585938 21.472656 39.769531 L 21.472656 31.394531 C 21.953125 32.917969 23.125 34.136719 24.625 34.664062 M 22.40625 29.890625 C 22.40625 29.351562 22.800781 28.902344 23.308594 28.804688 C 23.355469 29.453125 23.882812 29.964844 24.535156 29.964844 L 27.003906 29.964844 C 27.65625 29.964844 28.183594 29.453125 28.230469 28.804688 C 28.738281 28.902344 29.128906 29.351562 29.128906 29.890625 C 29.128906 31.976562 27.699219 33.242188 25.765625 33.722656 C 23.839844 33.242188 22.40625 31.976562 22.40625 29.890625 M 11.195312 18.835938 C 11.113281 18.941406 11.0625 19.066406 11.0625 19.207031 C 11.0625 19.308594 11.085938 19.398438 11.125 19.480469 L 7.285156 19.488281 C 7.457031 19.050781 7.644531 18.621094 7.851562 18.207031 Z M 8.773438 16.617188 C 9.207031 15.964844 9.691406 15.347656 10.21875 14.769531 C 10.488281 15.714844 11.066406 16.566406 11.839844 17.175781 C 11.730469 17.238281 11.640625 17.328125 11.589844 17.457031 C 11.566406 17.535156 11.554688 17.617188 11.558594 17.695312 Z M 7.394531 21.5625 C 7.394531 21.5625 9.222656 21.21875 11.226562 20.847656 C 11.207031 20.949219 11.207031 21.058594 11.253906 21.160156 C 11.277344 21.230469 11.316406 21.289062 11.367188 21.339844 L 7.589844 22.820312 C 7.0625 23.140625 6.910156 23.792969 7.207031 24.289062 C 7.355469 24.523438 7.589844 24.691406 7.867188 24.761719 C 8.140625 24.824219 8.421875 24.78125 8.65625 24.628906 L 11.972656 22.570312 C 12 22.671875 12.039062 22.769531 12.113281 22.851562 C 12.164062 22.910156 12.222656 22.949219 12.285156 22.980469 L 9.292969 25.730469 C 8.917969 26.222656 9.007812 26.882812 9.46875 27.234375 C 9.933594 27.589844 10.589844 27.492188 10.941406 27.03125 L 13.320312 23.863281 C 13.378906 23.953125 13.449219 24.03125 13.542969 24.082031 C 13.59375 24.109375 13.652344 24.113281 13.710938 24.128906 C 13.722656 24.132812 13.726562 24.140625 13.742188 24.152344 L 12.082031 27.511719 C 11.910156 28.085938 12.230469 28.65625 12.765625 28.8125 C 13.308594 28.964844 13.867188 28.652344 14.027344 28.105469 L 14.984375 24.742188 C 15.394531 24.871094 15.832031 24.933594 16.28125 24.933594 C 16.648438 24.933594 16.890625 24.910156 17.238281 24.820312 C 17.230469 25.429688 17.230469 26.003906 17.230469 26.0625 C 17.148438 26.144531 14.1875 29.382812 14.1875 29.382812 C 13.664062 29.8125 13.472656 29.835938 13.136719 29.496094 L 13.039062 29.394531 L 12.109375 30.125 L 12.234375 30.253906 C 12.585938 30.601562 12.910156 30.84375 13.359375 30.886719 C 12.714844 31.226562 12.164062 31.515625 12.070312 31.566406 C 11.96875 31.464844 11.488281 30.964844 11.234375 30.703125 C 11.195312 30.042969 10.652344 29.511719 9.984375 29.511719 C 9.292969 29.511719 8.726562 30.074219 8.726562 30.773438 L 8.726562 30.835938 L 9.210938 31.324219 L 9.210938 30.941406 C 9.210938 30.855469 9.242188 30.773438 9.300781 30.714844 C 9.429688 30.59375 9.625 30.59375 9.746094 30.714844 C 9.746094 30.714844 10.125 31.117188 10.367188 31.386719 L 10.367188 31.394531 L 10.46875 31.496094 C 10.53125 31.574219 10.582031 31.625 10.582031 31.625 L 10.589844 31.617188 L 10.863281 31.90625 L 10.507812 31.90625 C 10.265625 31.707031 9.972656 31.605469 9.660156 31.617188 C 9.320312 31.632812 9.015625 31.773438 8.785156 32.023438 C 8.617188 32.203125 8.511719 32.417969 8.472656 32.65625 C 7.082031 30.386719 6.285156 27.722656 6.285156 24.871094 C 6.285156 23.671875 6.429688 22.511719 6.691406 21.398438 C 6.875 21.558594 7.121094 21.617188 7.394531 21.5625 M 9.101562 33.324219 C 9.101562 33.234375 9.136719 33.132812 9.207031 33.0625 C 9.28125 32.976562 9.378906 32.933594 9.484375 32.925781 L 10.390625 32.933594 C 9.9375 33.035156 9.550781 33.332031 9.332031 33.757812 C 9.222656 33.597656 9.117188 33.414062 9.101562 33.335938 Z M 10.25 34.648438 C 10.269531 34.566406 10.320312 34.496094 10.390625 34.453125 L 12.285156 33.375 L 12.824219 33.925781 L 12.808594 33.933594 L 12.945312 34.046875 L 13.039062 34.148438 L 13.046875 34.144531 L 13.722656 34.773438 C 13.84375 34.894531 13.84375 35.09375 13.714844 35.214844 C 13.65625 35.277344 13.574219 35.308594 13.492188 35.308594 L 13.109375 35.308594 L 13.59375 35.796875 L 13.65625 35.796875 C 13.996094 35.796875 14.308594 35.664062 14.542969 35.425781 C 14.785156 35.1875 14.914062 34.867188 14.914062 34.527344 C 14.914062 33.863281 14.390625 33.316406 13.734375 33.277344 C 13.582031 33.125 13.371094 32.914062 13.269531 32.8125 C 13.570312 32.617188 18.820312 29.265625 19.308594 28.960938 C 19.144531 30.804688 17.5625 32.972656 16.0625 34.265625 C 15.378906 34.957031 15.117188 35.71875 15.117188 36.386719 C 15.117188 36.96875 15.324219 37.484375 15.621094 37.777344 C 15.882812 38.046875 16.285156 38.125 16.617188 37.976562 L 16.828125 37.878906 L 16.667969 37.71875 C 16.402344 37.449219 16.3125 36.988281 16.3125 36.644531 C 16.3125 35.949219 16.484375 35.597656 16.820312 35.234375 C 16.890625 35.304688 17.039062 35.449219 17.25 35.664062 C 17.109375 36.046875 17.039062 36.429688 17.039062 36.804688 C 17.039062 37.546875 17.300781 38.21875 17.734375 38.65625 C 17.824219 38.746094 18.78125 39.539062 19.183594 39.40625 L 19.46875 39.308594 L 19.226562 39.128906 C 19.085938 39.019531 18.632812 38.496094 18.480469 38.167969 C 18.351562 37.910156 18.28125 37.605469 18.28125 37.277344 C 18.28125 36.746094 18.492188 36.136719 18.972656 35.65625 C 18.996094 35.617188 20.042969 33.023438 20.578125 31.765625 C 20.578125 31.796875 20.578125 32.015625 20.578125 32.015625 C 20.585938 32.3125 20.585938 32.597656 20.585938 32.886719 C 20.585938 34.398438 20.496094 35.738281 19.832031 36.40625 C 19.425781 36.824219 18.660156 37.039062 18.660156 37.039062 L 18.855469 37.269531 C 18.875 37.296875 19.195312 37.785156 19.707031 37.804688 C 19.832031 37.808594 19.929688 37.726562 20.039062 37.675781 C 20.0625 38.859375 20.28125 39.320312 20.683594 39.769531 C 16.726562 39.648438 13.152344 37.976562 10.558594 35.328125 L 10.289062 34.894531 C 10.257812 34.84375 10.246094 34.785156 10.246094 34.71875 C 10.246094 34.703125 10.246094 34.675781 10.25 34.648438 M 18.214844 13.46875 L 18.5625 12.863281 L 17.089844 12.863281 L 17.261719 12.226562 C 17.261719 11.925781 17.015625 11.675781 16.714844 11.675781 C 16.636719 11.675781 16.566406 11.6875 16.503906 11.722656 C 16.515625 11.664062 16.523438 11.613281 16.523438 11.566406 C 16.523438 11.367188 16.363281 11.203125 16.160156 11.203125 C 15.960938 11.203125 15.796875 11.367188 15.796875 11.566406 C 15.796875 11.613281 15.800781 11.664062 15.820312 11.722656 C 15.757812 11.6875 15.6875 11.675781 15.609375 11.675781 C 15.304688 11.675781 15.054688 11.925781 15.054688 12.226562 L 15.234375 12.863281 L 14.839844 12.863281 C 14.578125 12.863281 14.355469 13.054688 14.300781 13.308594 C 14.21875 13.285156 14.136719 13.273438 14.046875 13.273438 C 13.542969 13.273438 13.140625 13.675781 13.140625 14.183594 C 13.140625 14.335938 13.179688 14.484375 13.25 14.617188 C 13.402344 14.328125 13.703125 14.136719 14.046875 14.136719 C 14.355469 14.136719 14.628906 14.289062 14.789062 14.527344 C 14.8125 14.558594 14.824219 14.585938 14.84375 14.617188 C 14.890625 14.699219 14.914062 14.804688 14.933594 14.898438 L 13.101562 14.898438 C 12.597656 14.898438 12.195312 14.496094 12.195312 13.988281 L 12.195312 14.578125 C 12.195312 15.078125 12.597656 15.488281 13.101562 15.488281 L 14.839844 15.488281 C 14.683594 15.765625 14.390625 15.957031 14.046875 15.957031 C 14.027344 15.957031 14.007812 15.957031 13.996094 15.949219 C 14.15625 16.195312 14.429688 16.347656 14.742188 16.347656 C 15.125 16.347656 15.457031 16.105469 15.585938 15.757812 L 18.039062 15.757812 C 18.539062 15.757812 18.945312 16.167969 18.945312 16.667969 C 18.945312 16.90625 18.945312 17.230469 18.71875 17.480469 L 18.488281 17.820312 L 16.945312 20.21875 C 16.664062 20.636719 16.101562 20.742188 15.6875 20.460938 C 15.273438 20.171875 15.164062 19.589844 15.445312 19.179688 C 15.800781 18.976562 15.941406 18.558594 15.878906 18.128906 C 15.796875 17.589844 15.308594 17.226562 14.773438 17.277344 L 14.476562 17.269531 C 12.535156 17.269531 11.085938 15.957031 10.890625 14.089844 C 12.929688 12.128906 15.535156 10.746094 18.421875 10.214844 L 18.214844 11.558594 L 20.179688 9.953125 L 20.839844 11.667969 L 20.839844 14.328125 Z M 21.121094 44.828125 C 10.167969 44.828125 1.257812 35.875 1.257812 24.871094 C 1.257812 15.136719 8.234375 7.011719 17.429688 5.269531 L 17.703125 5.605469 L 15.316406 6.523438 L 17.703125 7.441406 L 16.09375 9.433594 L 18.613281 9.03125 L 18.53125 9.546875 C 11.226562 10.792969 5.652344 17.1875 5.652344 24.871094 C 5.652344 33.4375 12.59375 40.410156 21.121094 40.410156 C 29.65625 40.410156 36.597656 33.4375 36.597656 24.871094 C 36.597656 17.195312 31.023438 10.796875 23.730469 9.554688 L 23.660156 9.035156 L 26.117188 9.433594 L 24.574219 7.421875 L 26.894531 6.53125 L 24.546875 5.5625 L 24.789062 5.261719 C 33.996094 6.996094 40.988281 15.125 40.988281 24.871094 C 40.988281 35.875 32.074219 44.828125 21.121094 44.828125 "/>
<path style=" stroke:none;fill-rule:nonzero;fill:rgb(85.098039%,0%,36.078431%);fill-opacity:1;" d="M 55.4375 20.742188 C 50.855469 20.742188 49.828125 18.109375 49.828125 15.175781 L 49.828125 5.152344 L 52.617188 5.152344 L 52.617188 14.996094 C 52.617188 16.925781 53.222656 18.289062 55.628906 18.289062 C 57.777344 18.289062 58.675781 17.335938 58.675781 14.71875 L 58.675781 5.152344 L 61.453125 5.152344 L 61.453125 14.539062 C 61.453125 18.71875 59.257812 20.742188 55.4375 20.742188 "/>
<path style=" stroke:none;fill-rule:nonzero;fill:rgb(85.098039%,0%,36.078431%);fill-opacity:1;" d="M 72.6875 20.492188 C 72.6875 20.492188 67.214844 10.453125 66.78125 9.453125 C 66.867188 10.765625 66.914062 13.175781 66.914062 15.015625 L 66.914062 20.492188 L 64.203125 20.492188 L 64.203125 5.160156 L 67.75 5.160156 C 67.75 5.160156 73.121094 14.925781 73.65625 16.085938 C 73.546875 14.539062 73.511719 11.8125 73.511719 9.925781 L 73.511719 5.160156 L 76.214844 5.160156 L 76.214844 20.492188 L 72.6875 20.492188 "/>
<path style=" stroke:none;fill-rule:nonzero;fill:rgb(85.098039%,0%,36.078431%);fill-opacity:1;" d="M 79.5 5.160156 L 82.292969 5.160156 L 82.292969 20.492188 L 79.5 20.492188 Z M 79.5 5.160156 "/>
<path style=" stroke:none;fill-rule:nonzero;fill:rgb(85.098039%,0%,36.078431%);fill-opacity:1;" d="M 92.347656 20.492188 L 89.125 20.492188 L 84.074219 5.160156 L 87.128906 5.160156 L 89.941406 14.128906 C 90.222656 14.996094 90.542969 16.015625 90.804688 17.128906 L 90.84375 17.128906 C 91.058594 16.085938 91.296875 15.246094 91.703125 13.949219 L 94.5625 5.160156 L 97.417969 5.160156 L 92.347656 20.492188 "/>
<path style=" stroke:none;fill-rule:nonzero;fill:rgb(85.098039%,0%,36.078431%);fill-opacity:1;" d="M 99.328125 20.492188 L 99.328125 5.160156 L 107.296875 5.160156 L 107.296875 7.632812 L 102.148438 7.632812 L 102.148438 11.40625 L 107.039062 11.40625 L 107.039062 13.808594 L 102.148438 13.808594 L 102.148438 17.96875 L 107.296875 17.96875 L 107.296875 20.492188 Z M 99.328125 20.492188 "/>
<path style=" stroke:none;fill-rule:nonzero;fill:rgb(85.098039%,0%,36.078431%);fill-opacity:1;" d="M 117.257812 20.492188 L 113.222656 14.15625 L 113.113281 14.15625 L 113.113281 20.492188 L 110.320312 20.492188 L 110.320312 5.160156 C 111.460938 5.089844 112.8125 5.0625 114.492188 5.0625 C 117.695312 5.0625 119.753906 6.25 119.753906 9.382812 C 119.753906 11.65625 118.253906 13.289062 116.058594 13.65625 C 116.46875 14.21875 116.875 14.808594 117.242188 15.335938 L 120.722656 20.492188 Z M 114.210938 7.472656 C 113.800781 7.472656 113.394531 7.496094 113.113281 7.542969 L 113.113281 11.972656 C 113.3125 11.996094 113.695312 12.015625 114.128906 12.015625 C 115.796875 12.015625 116.832031 11.113281 116.832031 9.675781 C 116.832031 8.203125 115.972656 7.472656 114.210938 7.472656 "/>
<path style=" stroke:none;fill-rule:nonzero;fill:rgb(85.098039%,0%,36.078431%);fill-opacity:1;" d="M 125.445312 20.742188 C 124.417969 20.742188 123.382812 20.628906 122.476562 20.378906 L 122.648438 17.628906 C 123.464844 17.925781 124.628906 18.175781 125.679688 18.175781 C 127.097656 18.175781 128.195312 17.566406 128.195312 16.15625 C 128.195312 13.21875 122.113281 14.566406 122.113281 9.515625 C 122.113281 6.792969 124.15625 4.902344 127.640625 4.902344 C 128.457031 4.902344 129.398438 5.019531 130.261719 5.179688 L 130.109375 7.765625 C 129.292969 7.515625 128.390625 7.355469 127.503906 7.355469 C 125.898438 7.355469 125.082031 8.132812 125.082031 9.222656 C 125.082031 11.972656 131.179688 10.953125 131.179688 15.746094 C 131.179688 18.628906 129.011719 20.742188 125.445312 20.742188 "/>
<path style=" stroke:none;fill-rule:nonzero;fill:rgb(85.098039%,0%,36.078431%);fill-opacity:1;" d="M 133.4375 5.160156 L 136.230469 5.160156 L 136.230469 20.492188 L 133.4375 20.492188 Z M 133.4375 5.160156 "/>
<path style=" stroke:none;fill-rule:nonzero;fill:rgb(85.098039%,0%,36.078431%);fill-opacity:1;" d="M 144.699219 7.675781 L 144.699219 20.492188 L 141.902344 20.492188 L 141.902344 7.675781 L 138.144531 7.675781 L 138.144531 5.160156 L 148.460938 5.160156 L 148.460938 7.675781 Z M 144.699219 7.675781 "/>
<path style=" stroke:none;fill-rule:nonzero;fill:rgb(85.098039%,0%,36.078431%);fill-opacity:1;" d="M 150.667969 20.492188 L 150.667969 5.160156 L 158.96875 5.160156 L 158.96875 7.632812 L 153.609375 7.632812 L 153.609375 11.40625 L 158.695312 11.40625 L 158.695312 13.808594 L 153.609375 13.808594 L 153.609375 17.96875 L 158.96875 17.96875 L 158.96875 20.492188 Z M 153.761719 4.152344 L 152.765625 2.5 L 156.730469 0 L 157.929688 2 Z M 153.761719 4.152344 "/>
<path style=" stroke:none;fill-rule:nonzero;fill:rgb(85.098039%,0%,36.078431%);fill-opacity:1;" d="M 54.160156 45.058594 C 52.574219 45.058594 51.195312 44.988281 49.90625 44.941406 L 49.90625 29.652344 C 51.105469 29.601562 52.960938 29.535156 54.835938 29.535156 C 59.5625 29.535156 62.570312 31.652344 62.570312 37.035156 C 62.570312 42.308594 59.136719 45.058594 54.160156 45.058594 M 54.632812 32.011719 C 53.957031 32.011719 53.320312 32.035156 52.847656 32.082031 L 52.847656 42.417969 C 53.253906 42.488281 53.859375 42.53125 54.453125 42.53125 C 57.324219 42.53125 59.40625 40.898438 59.40625 37.257812 C 59.40625 33.964844 58.117188 32.011719 54.632812 32.011719 "/>
<path style=" stroke:none;fill-rule:nonzero;fill:rgb(85.098039%,0%,36.078431%);fill-opacity:1;" d="M 64.566406 44.960938 L 64.566406 29.625 L 72.867188 29.625 L 72.867188 32.105469 L 67.507812 32.105469 L 67.507812 35.875 L 72.589844 35.875 L 72.589844 38.285156 L 67.507812 38.285156 L 67.507812 42.441406 L 72.867188 42.441406 L 72.867188 44.960938 Z M 64.566406 44.960938 "/>
<path style=" stroke:none;fill-rule:nonzero;fill:rgb(85.098039%,0%,36.078431%);fill-opacity:1;" d="M 93.921875 32.804688 C 92.699219 32.332031 91.300781 32.035156 89.871094 32.035156 C 86.867188 32.035156 84.691406 33.945312 84.691406 37.375 C 84.691406 40.621094 86.460938 42.53125 89.558594 42.53125 C 90.28125 42.53125 90.914062 42.441406 91.507812 42.261719 L 91.507812 36.917969 L 94.445312 36.917969 L 94.445312 44.238281 C 92.929688 44.851562 91.054688 45.191406 89.214844 45.191406 C 84.378906 45.191406 81.503906 42.328125 81.503906 37.648438 C 81.503906 32.832031 84.761719 29.394531 90.058594 29.394531 C 91.570312 29.394531 93.0625 29.671875 94.375 30.054688 L 93.921875 32.804688 "/>
<path style=" stroke:none;fill-rule:nonzero;fill:rgb(85.098039%,0%,36.078431%);fill-opacity:1;" d="M 97.566406 44.960938 L 97.566406 29.625 L 105.867188 29.625 L 105.867188 32.105469 L 100.507812 32.105469 L 100.507812 35.875 L 105.597656 35.875 L 105.597656 38.285156 L 100.507812 38.285156 L 100.507812 42.441406 L 105.867188 42.441406 L 105.867188 44.960938 Z M 97.566406 44.960938 "/>
<path style=" stroke:none;fill-rule:nonzero;fill:rgb(85.098039%,0%,36.078431%);fill-opacity:1;" d="M 117.847656 44.960938 C 117.847656 44.960938 112.085938 34.917969 111.632812 33.917969 C 111.722656 35.238281 111.773438 37.648438 111.773438 39.488281 L 111.773438 44.960938 L 108.921875 44.960938 L 108.921875 29.625 L 112.660156 29.625 C 112.660156 29.625 118.304688 39.398438 118.875 40.558594 C 118.757812 39.007812 118.714844 36.285156 118.714844 34.398438 L 118.714844 29.625 L 121.566406 29.625 L 121.566406 44.960938 L 117.847656 44.960938 "/>
<path style=" stroke:none;fill-rule:nonzero;fill:rgb(85.098039%,0%,36.078431%);fill-opacity:1;" d="M 124.621094 44.960938 L 124.621094 29.625 L 132.921875 29.625 L 132.921875 32.105469 L 127.5625 32.105469 L 127.5625 35.875 L 132.648438 35.875 L 132.648438 38.285156 L 127.5625 38.285156 L 127.5625 42.441406 L 132.921875 42.441406 L 132.921875 44.960938 Z M 129.660156 28.652344 L 125.5 26.492188 L 126.746094 24.46875 L 130.683594 26.964844 Z M 129.660156 28.652344 "/>
<path style=" stroke:none;fill-rule:nonzero;fill:rgb(85.098039%,0%,36.078431%);fill-opacity:1;" d="M 143.441406 44.960938 L 140.046875 44.960938 L 134.726562 29.625 L 137.941406 29.625 L 140.902344 38.605469 C 141.195312 39.460938 141.539062 40.488281 141.808594 41.601562 L 141.851562 41.601562 C 142.082031 40.558594 142.332031 39.710938 142.757812 38.417969 L 145.769531 29.625 L 148.78125 29.625 L 143.441406 44.960938 "/>
<path style=" stroke:none;fill-rule:nonzero;fill:rgb(85.098039%,0%,36.078431%);fill-opacity:1;" d="M 150.699219 44.960938 L 150.699219 29.625 L 159 29.625 L 159 32.105469 L 153.640625 32.105469 L 153.640625 35.875 L 158.730469 35.875 L 158.730469 38.285156 L 153.640625 38.285156 L 153.640625 42.441406 L 159 42.441406 L 159 44.960938 Z M 150.699219 44.960938 "/>
</g>
</svg>